<svg xmlns="http://www.w3.org/2000/svg" viewBox="0 0 47.7 47.8"><path d="M47.5 23.9C47.5 10.9 36.9.3 23.9.3S.2 10.8.2 23.9s10.6 23.6 23.6 23.6c10.3 0 19.1-6.6 22.3-15.9h0a21.91 21.91 0 0 0 1.4-7.7zm-2.2 2.8c-.3-.9-.6-1.9-1.1-2.8-.2-.3-.3-.7-.5-1-.9-1.7-3.3-6.6-9.4-9.5h0l-2.1 2.3h0l1-2.9h0s-5-2.1-6.4-1.5h0l-.5 2.8h0l-.7-2.9h0s-3.4-.6-6.9.5h0l1.4 2.8c-.2-.1-2-.5-3.4 2.8h0L4.3 14.8l.5.3L15 20.2h0s-6.2 9-6.3 9.6c0 0-1.7 3.7 3.7 4.1 0 0 2.8-.2 10.6-3.5 0 0 .9-.3 1.9-1-1 .7-1.9 1-1.9 1s4.1 2.9 1.2 9.3c-1.6 3.6-5.2 4.3-8 4.3C8 41 2.3 33.1 2.3 23.9 2.3 11.9 12 2.2 24 2.2s21.7 9.7 21.7 21.7c-.2.9-.2 1.9-.4 2.8zm-23.8-4.2l-3.1 2.3s-1-1.2.3-2.1c-.1 0 1.2-.9 2.8-.2z" fill="none" stroke="#74ec67" stroke-width=".5" stroke-linejoin="round" stroke-miterlimit="10"/></svg>